<svg xmlns="http://www.w3.org/2000/svg" viewBox="0 0 256 62.2" style="enable-background:new 0 0 256 62.2" xml:space="preserve"><path d="M.9 0h72c0 8.1-6.6 14.6-14.6 14.6H15.6C7.5 14.6.9 8.1.9 0zM198.6 0H256c0 8.1-6.6 14.6-14.6 14.6H184c0-8 6.6-14.6 14.6-14.6zM256 47.5c0 8.1-6.6 14.6-14.6 14.6H212c-15.5 0-28-12.5-28-28v-11h14.6v9c0 8.5 6.9 15.5 15.4 15.5h42zM.9 23.8h72c0 8.1-6.6 14.6-14.6 14.6H15.6C7.5 38.4.9 31.9.9 23.8zM.9 47.5h72c0 8.1-6.6 14.6-14.6 14.6H15.6C7.5 62.2.9 55.6.9 47.5zM168.3 0l-29.6 58.8c-1 2.1-3.1 3.4-5.4 3.4h-7.7c-2.3 0-4.4-1.3-5.4-3.4L90.5 0h11.2c3.2 0 6 1.8 7.5 4.6l20.3 40.2 20.3-40.2c1.4-2.8 4.3-4.6 7.5-4.6h11z"></path></svg>