<svg width="200" height="50" viewBox="0 0 200 50" xmlns="http://www.w3.org/2000/svg"><path d="M44.297 0c.101.257.186.524.307.772C50.9 13.581 57.204 26.385 63.487 39.2c.273.556.58.755 1.194.748 2.846-.036 5.692-.016 8.538-.016h.914c-.124.296-.197.504-.293.7-1.426 2.904-2.866 5.802-4.27 8.718-.223.46-.472.616-.973.611a419.337 419.337 0 0 0-8.917.005c-.593.008-.877-.183-1.138-.715-6.28-12.81-12.585-25.608-18.862-38.42-.298-.607-.61-.834-1.296-.833-12.468.027-24.936.019-37.404.017-.326 0-.653-.015-.98-.024V0h44.297ZM199.868 0c-.024.304-.071.607-.071.91-.004 4.505-.003 9.013-.003 13.519v.963h-9.157c3.146 3.196 6.248 6.348 9.348 9.5l-.129.223c-.175.021-.352.06-.528.06-1.89.005-3.779.026-5.668-.018a1.656 1.656 0 0 1-1.035-.45c-2.923-2.931-5.811-5.899-8.736-8.826-.267-.267-.724-.447-1.102-.467-1.153-.06-2.31-.022-3.503-.022v-5.375h15.21V5.415h-19.371v20.067h-5.316v-.936c0-6.12.009-12.24-.016-18.36a4.7 4.7 0 0 0-.345-1.692c-.606-1.514-1.283-2.999-1.932-4.496C178.298 0 189.083 0 199.868 0ZM0 39.957c.251-.01.502-.025.754-.025 14.204-.001 28.409.003 42.612-.017.64-.001.969.174 1.256.776 1.459 3.053 2.972 6.082 4.532 9.255H0v-9.99Z"></path><path d="M0 19.978c9.566 0 19.131.008 28.697-.017.626-.001.925.212 1.19.762 1.344 2.8 2.73 5.58 4.1 8.369.12.247.228.501.377.826-.215.031-.374.073-.533.073-11.177.003-22.354.003-33.53.001-.1 0-.2-.015-.301-.023v-9.99ZM93.735 0c-.085.234-.148.481-.257.703-4.683 9.53-9.375 19.055-14.041 28.593-.267.544-.56.72-1.144.712-2.744-.033-5.488-.014-8.232-.014h-.817c.16-.35.265-.603.385-.846 4.64-9.436 9.284-18.872 13.925-28.31.133-.27.237-.557.355-.838h9.826ZM163.281 0v11.492h-5.193V5.41h-19.442v6.094h-5.3c0-1.845.018-3.657-.012-5.466a3.822 3.822 0 0 0-.273-1.321c-.637-1.582-1.317-3.147-1.982-4.718C141.813 0 152.547 0 163.281 0ZM126.996 0v5.354h-.89c-8.557 0-17.112-.006-25.668.014-.59.001-.891-.156-1.115-.726-.616-1.564-1.301-3.097-1.96-4.642h29.633ZM199.955 33.217v2.459H99.86v-2.459h100.095ZM158.073 20.44h-19.419V25.5h-5.257V15.112h29.853v10.37h-5.177V20.44ZM126.965 20.082v5.3H99.689V9.252h5.219v10.83h22.057ZM156.198 49.881v-9.645c.236-.017.454-.046.672-.046 2.215-.003 4.43-.013 6.645 0 2.645.015 4.019 1.919 3.185 4.48-.172.528-.605.969-.964 1.52 1.917.6 1.149 2.258 1.318 3.676h-2.342c0-.481-.003-.959 0-1.437.005-.8-.404-1.307-1.16-1.333-1.653-.054-3.308-.017-5.044-.017v2.802h-2.31Zm2.368-4.834c1.695 0 3.303.014 4.911-.006.713-.01 1.007-.466 1.038-1.153.053-1.149-.165-1.668-.941-1.699-1.652-.068-3.307-.022-5.008-.022v2.88ZM184.794 46.152c2.029.675 1.302 2.305 1.454 3.71h-2.335c0-.465.02-.943-.005-1.419-.045-.89-.352-1.318-1.221-1.355-1.626-.07-3.257-.02-4.969-.02v2.809h-2.287v-9.578c.022-.018.06-.074.1-.074 2.566-.01 5.13-.046 7.695-.006 1.209.02 2.244.487 2.606 1.799.379 1.377.49 2.735-.71 3.825-.074.067-.147.137-.328.31Zm-7.041-1.099c1.61 0 3.14.008 4.671-.003.965-.008 1.279-.351 1.292-1.366.015-1.125-.299-1.524-1.293-1.543-1.234-.023-2.467-.006-3.7-.006h-.97v2.918ZM102.216 42.016v2.095h7.117v1.76h-7.11v2.184h7.331v1.819h-9.69V40.24h9.693v1.776h-7.341ZM138.439 43.468h-2.149c-.422-1.222-.671-1.42-1.974-1.43-1.182-.01-2.365.022-3.547.045-.746.015-1.098.453-1.109 1.173-.017 1.125-.038 2.252.008 3.376.034.864.422 1.26 1.289 1.288 1.333.045 2.667.025 4.002.005.826-.012 1.216-.518 1.266-1.352h2.184c.351 1.956-.385 3.143-2.273 3.251-2.205.127-4.424.071-6.632-.035-1.262-.06-1.973-.756-2.064-2.038-.124-1.753-.149-3.527-.019-5.278.113-1.539.906-2.268 2.41-2.331a63.574 63.574 0 0 1 6.037.001c1.81.099 2.721 1.354 2.571 3.325ZM140.621 49.863c.983-1.892 1.918-3.697 2.858-5.499.623-1.198 1.271-2.383 1.87-3.592.207-.417.439-.62.92-.595.779.04 1.563-.015 2.341.028.225.012.545.173.644.36 1.615 3.06 3.201 6.136 4.866 9.349-.926 0-1.737.024-2.546-.022-.151-.01-.365-.274-.418-.46-.472-1.666-1.534-2.216-3.191-1.97-.936.14-1.911.047-2.867.016-.409-.014-.623.119-.816.493-1.09 2.142-1.1 2.135-3.661 1.892Zm8.58-4.281-1.818-3.607-1.872 3.607h3.69ZM188.862 40.231h2.262v3.692c0 .819-.019 1.639.006 2.457.035 1.063.506 1.54 1.554 1.56 1.158.024 2.317.024 3.476 0 .958-.02 1.421-.419 1.454-1.387.062-1.79.045-3.58.06-5.372.003-.3 0-.6 0-.948h2.32c0 1.363.014 2.685-.005 4.008-.015 1.123-.007 2.254-.119 3.37-.13 1.295-.814 2.098-2.062 2.162a61.118 61.118 0 0 1-6.552.005c-1.401-.08-2.305-1.036-2.367-2.454-.102-2.343-.027-4.697-.027-7.093ZM111.853 40.19c.877 0 1.608-.051 2.325.027.242.026.525.343.658.597 1.131 2.166 2.232 4.349 3.343 6.525.109.215.227.426.43.8.596-1.145 1.109-2.129 1.62-3.115.749-1.446 1.477-2.906 2.264-4.33.134-.244.51-.454.796-.484.641-.073 1.296-.023 2.053-.023-.138.31-.221.534-.333.744-1.471 2.792-2.957 5.577-4.411 8.378-.228.44-.467.656-.979.623-.877-.055-1.93.26-2.589-.134-.653-.392-.923-1.46-1.337-2.245-1.152-2.182-2.292-4.373-3.436-6.562-.118-.22-.226-.447-.404-.801ZM169.987 49.866v-2.248h2.29v2.248h-2.29Z"></path></svg>